<?xml version="1.0" encoding="iso-8859-1"?>
<!-- Generator: Adobe Illustrator 19.0.0, SVG Export Plug-In . SVG Version: 6.00 Build 0)  -->
<svg version="1.1" id="Capa_1" xmlns="http://www.w3.org/2000/svg" xmlns:xlink="http://www.w3.org/1999/xlink" x="0px" y="0px"
	 viewBox="0 0 511.999 511.999" style="enable-background:new 0 0 511.999 511.999;" xml:space="preserve">
<path style="fill:#FEDB41;" d="M436.868,479.05H75.132c-45.601,0-74.7-49.2-52.5-89.101L203.5,64.149
	c11.4-20.7,32.1-30.899,52.5-30.899s41.1,10.199,52.5,30.899l180.868,325.8C511.568,429.849,482.469,479.05,436.868,479.05z"/>
<path style="fill:#FCBF29;" d="M436.868,479.05H256V33.25c20.4,0,41.1,10.199,52.5,30.899l180.868,325.8
	C511.568,429.849,482.469,479.05,436.868,479.05z"/>
<path style="fill:#FD4E26;" d="M502.568,382.749L321.7,56.649c-13.5-24-38.101-38.699-65.7-38.699s-52.2,14.7-65.7,38.699
	L9.432,382.749c-27.599,50.099,8.701,111.301,65.7,111.301h361.737C493.867,494.05,530.168,432.849,502.568,382.749z
	 M436.868,464.05H75.132c-34.2,0-56.1-36.601-39.3-66.901L216.7,71.349c8.699-15.599,24-23.399,39.3-23.399s30.901,7.8,39.3,23.399
	l180.868,325.8C492.668,427.149,471.069,464.05,436.868,464.05z"/>
<path style="fill:#FD3018;" d="M436.868,494.05H256v-30h180.868c34.2,0,55.8-36.901,39.3-66.901l-180.868-325.8
	c-8.399-15.599-24-23.399-39.3-23.399v-30c27.599,0,52.2,14.7,65.7,38.699l180.868,326.1
	C530.168,432.849,493.867,494.05,436.868,494.05z"/>
<path style="fill:#CAE8F9;" d="M218.5,344.05l-29.377-7.5L166,359.05v60c0,8.284,6.716,15,15,15h30c8.284,0,15-6.716,15-15v-60
	L218.5,344.05z"/>
<path style="fill:#B7E0F6;" d="M340.375,340.924h-38.752L286,359.05v60c0,8.284,6.716,15,15,15h30c8.284,0,15-6.716,15-15v-60
	L340.375,340.924z"/>
<path style="fill:#FD4E26;" d="M346,254.05v105h-60v-105c0-16.5-13.499-30-30-30s-30,13.5-30,30v105h-60v-101.4
	c0-43.5,29.399-83.701,72.001-91.8c5.999-1.201,12.001-1.8,17.999-1.8C305.797,164.05,346,204.549,346,254.05z"/>
<path style="fill:#FD3018;" d="M346,254.05v105h-60v-105c0-16.5-13.499-30-30-30v-60C305.797,164.05,346,204.549,346,254.05z"/>
<g>
</g>
<g>
</g>
<g>
</g>
<g>
</g>
<g>
</g>
<g>
</g>
<g>
</g>
<g>
</g>
<g>
</g>
<g>
</g>
<g>
</g>
<g>
</g>
<g>
</g>
<g>
</g>
<g>
</g>
</svg>
