<?xml version="1.0" ?><svg style="enable-background:new 0 0 96 96;" version="1.1" viewBox="0 0 96 96" xml:space="preserve" xmlns="http://www.w3.org/2000/svg" xmlns:xlink="http://www.w3.org/1999/xlink"><style type="text/css">
	.st0{fill:none;stroke:#211A17;stroke-width:0.2367;stroke-miterlimit:10;stroke-dasharray:1.1835;}
	.st1{fill:none;stroke:#211A17;stroke-width:0.2829;stroke-miterlimit:10;}
	.st2{fill:#232E50;}
	.st3{fill:#00ACEC;}
	.st4{opacity:0.2;fill:#FFFFFF;}
	.st5{display:none;fill:#232E50;}
	.st6{fill:#9BD2F5;}
	.st7{opacity:0.1;fill:#21264C;}
	.st8{display:none;fill:none;stroke:#211A17;stroke-width:0.2514;stroke-miterlimit:10;}
	.st9{fill:#BBBCBE;}
	.st10{fill:none;stroke:#211A17;stroke-width:0.2367;stroke-miterlimit:10;}
	.st11{fill:#211A17;}
	.st12{fill:none;stroke:#211A17;stroke-width:0.1894;stroke-miterlimit:10;}
	.st13{fill:#E0922E;}
	.st14{fill:#E8C03C;}
	.st15{fill:#717175;}
	.st16{fill:#5D7F91;}
	.st17{fill:none;stroke:#211A17;stroke-width:0.4733;stroke-miterlimit:10;}
	.st18{fill:none;stroke:#211A17;stroke-width:0.116;stroke-miterlimit:10;}
	.st19{fill:none;stroke:#211A17;stroke-width:6.694800e-02;stroke-miterlimit:10;}
	.st20{fill:none;stroke:#211A17;stroke-width:0.1497;stroke-miterlimit:10;}
	.st21{display:none;fill:none;stroke:#211A17;stroke-width:0.2367;stroke-miterlimit:10;stroke-dasharray:1.1835;}
	.st22{fill:#ECD434;}
	.st23{fill:#CA0088;}
	.st24{opacity:0.3;fill:#21264C;}
	.st25{display:none;fill:#00ACEC;}
	.st26{fill:#6FB353;}
	.st27{opacity:0.2;fill:#21264C;}
	.st28{fill:#FFFFFF;}
	.st29{fill:none;stroke:#211A17;stroke-width:0.2524;stroke-miterlimit:10;}
	.st30{fill:none;stroke:#211A17;stroke-width:6.310900e-02;stroke-miterlimit:10;}
	.st31{fill:none;stroke:#211A17;stroke-width:3.155000e-02;stroke-miterlimit:10;}
	.st32{fill:#D8DE3F;}
	.st33{display:none;opacity:0.1;fill:#21264C;}
	.st34{fill:none;stroke:#211A17;stroke-width:0.1262;stroke-miterlimit:10;}
	.st35{fill:none;stroke:#211A17;stroke-width:0.3156;stroke-miterlimit:10;}
	.st36{fill:none;stroke:#211A17;stroke-width:0.1578;stroke-miterlimit:10;}
	.st37{fill:none;stroke:#211A17;stroke-width:6;stroke-linecap:round;stroke-miterlimit:10;}
	.st38{fill:none;stroke:#211A17;stroke-width:0.1997;stroke-miterlimit:10;}
	.st39{fill:none;stroke:#211A17;stroke-width:0.3156;stroke-miterlimit:10;stroke-dasharray:1.1835;}
	.st40{fill:#242D4F;}
	.st41{fill:#CF4239;}
	.st42{opacity:0.3;fill:#FFFFFF;}
	.st43{fill:#64A8DF;}
	.st44{fill:none;stroke:#FFFFFF;stroke-width:6;stroke-linecap:round;stroke-miterlimit:10;}
	.st45{fill:none;stroke:#CF4239;stroke-width:6;stroke-linecap:round;stroke-miterlimit:10;}
	.st46{fill:none;stroke:#64A8DF;stroke-width:6;stroke-linecap:round;stroke-miterlimit:10;}
	.st47{fill:#573B1B;}
	.st48{fill:#CC2D78;}
	.st49{fill:#CC2B8D;}
	.st50{fill:#2F004E;}
	.st51{fill:#452D0C;}
	.st52{fill:none;stroke:#211A17;stroke-width:0.1578;stroke-miterlimit:10;stroke-dasharray:1.183;}
	.st53{fill:#F1D73D;}
	.st54{fill:#323B8C;}
	.st55{fill:#CE3A2F;}
	.st56{fill:#32338E;}
	.st57{fill:#CC2128;}
	.st58{fill:#F5EC49;}
	.st59{fill:#B1252B;}
	.st60{fill:#71B566;}
	.st61{display:none;}
	.st62{display:inline;fill:none;stroke:#211A17;stroke-width:0.2367;stroke-miterlimit:10;}
	.st63{display:inline;fill:none;stroke:#211A17;stroke-width:0.2367;stroke-miterlimit:10;stroke-dasharray:1.1835;}
	.st64{fill:#B6C6D1;}
	.st65{opacity:0.4;fill:#242D4F;}
	.st66{fill:#F1F1F2;}
	.st67{opacity:0.1;fill:#242D4F;}
	.st68{fill:#E6E6E7;}
	.st69{opacity:0.2;fill:#242D4F;}
	.st70{display:none;fill:none;stroke:#211A17;stroke-miterlimit:10;}
	.st71{display:none;fill:none;stroke:#211A17;stroke-width:0.2367;stroke-miterlimit:10;}
</style><g id="sketches"/><g id="icons"><g id="temperature_x5F_increase"><path class="st40" d="M96,18c0-9.9-8.1-18-18-18c-5,0-9.5,2-12.7,5.3l0,0l-31,31C32.8,36.1,31.4,36,30,36    C13.4,36,0,49.4,0,66c0,16.6,13.4,30,30,30c16.6,0,30-13.4,30-30c0-1.4-0.1-2.8-0.3-4.2l31-31C93.9,27.5,96,23,96,18z M80.1,20.1    l-47,47C32.6,67.7,31.8,68,31,68c-0.8,0-1.5-0.3-2.1-0.9c-1.2-1.2-1.2-3.1,0-4.2l47-47c1.2-1.2,3.1-1.2,4.2,0    C81.3,17,81.3,18.9,80.1,20.1z" id="bck_2_"/><path class="st23" d="M62.1,33.9c-1.2-1.2-3.1-1.2-4.2,0L36.1,55.7C34.3,54.6,32.2,54,30,54c-6.6,0-12,5.4-12,12    c0,6.6,5.4,12,12,12c6.6,0,12-5.4,12-12c0-2.2-0.6-4.3-1.7-6.1l21.8-21.8C63.3,36.9,63.3,35,62.1,33.9z" id="mercury"/><path class="st42" d="M78,0c-5,0-9.5,2-12.7,5.3l0,0l-31,31C32.8,36.1,31.4,36,30,36C14.6,36,1.9,47.7,0.2,62.7v6.7    c0.8,7,4,13.3,8.7,17.9L90.8,5.4C87.6,2.1,83,0,78,0z" id="glow_6_"/></g></g></svg>